<?xml version="1.0" standalone="no"?>
<svg viewBox="0 0 200 200" xmlns="http://www.w3.org/2000/svg">
  <path fill="#24A148" d="M46.6,-71.9C59.9,-64.1,69.7,-50.2,73.4,-35.5C77.1,-20.7,74.7,-5.2,70.5,8.8C66.4,22.7,60.6,35.1,53.1,48.8C45.6,62.5,36.4,77.6,23.8,81.4C11.2,85.2,-4.7,77.8,-21,72.5C-37.3,67.3,-53.9,64.2,-61.6,54.1C-69.3,43.9,-68,26.8,-66,12.1C-64,-2.5,-61.3,-14.6,-58.3,-28.9C-55.4,-43.3,-52.2,-59.8,-42.5,-69.3C-32.7,-78.8,-16.4,-81.1,0.2,-81.4C16.7,-81.6,33.4,-79.8,46.6,-71.9Z" transform="translate(100 100)" />
</svg>
