<?xml version="1.0" standalone="no"?>
<svg viewBox="0 0 200 200" xmlns="http://www.w3.org/2000/svg">
  <path fill="#FF0066" d="M40.1,-70.8C50.4,-63.6,56,-49.6,59.9,-36.6C63.9,-23.7,66.2,-11.8,67.4,0.7C68.6,13.2,68.5,26.4,65.4,40.7C62.2,55,55.9,70.5,44.5,76.4C33.1,82.3,16.5,78.5,0,78.5C-16.5,78.5,-33.1,82.2,-45.6,77C-58.2,71.8,-66.8,57.6,-71.6,43.3C-76.4,29,-77.5,14.5,-74.3,1.9C-71,-10.8,-63.6,-21.6,-56.5,-32C-49.4,-42.4,-42.7,-52.4,-33.3,-60.1C-24,-67.8,-12,-73.3,1.5,-75.8C14.9,-78.4,29.9,-78,40.1,-70.8Z" transform="translate(100 100)" />
</svg>
