<?xml version="1.0" standalone="no"?>
<svg viewBox="0 0 200 200" xmlns="http://www.w3.org/2000/svg">
  <path fill="#FF0066" d="M47.7,-73.9C62,-65,73.8,-52.1,81.7,-36.7C89.6,-21.4,93.6,-3.7,91.1,13.1C88.6,29.8,79.7,45.6,67.9,58.4C56.1,71.3,41.4,81.2,25,86.8C8.6,92.3,-9.6,93.5,-26.4,89C-43.2,84.5,-58.5,74.3,-68.5,60.6C-78.5,46.9,-83.1,29.8,-85.2,12.5C-87.2,-4.7,-86.7,-22,-80.2,-36.8C-73.7,-51.5,-61.2,-63.7,-46.9,-72.5C-32.5,-81.3,-16.3,-86.8,0.2,-87.1C16.7,-87.5,33.4,-82.7,47.7,-73.9Z" transform="translate(100 100)" />
</svg>
