<?xml version="1.0" standalone="no"?>
<svg viewBox="0 0 200 200" xmlns="http://www.w3.org/2000/svg">
  <path fill="#0F62FE" d="M43.7,-71.3C55.7,-68.7,63.8,-55.1,64.4,-41.4C65.1,-27.7,58.2,-13.8,59.1,0.5C59.9,14.9,68.6,29.7,64.4,37.3C60.2,44.8,43.1,45,30.3,54C17.4,62.9,8.7,80.7,-3.9,87.5C-16.5,94.3,-33.1,90.1,-41.3,78.4C-49.6,66.8,-49.6,47.7,-55.9,33.4C-62.2,19.1,-74.9,9.5,-76.2,-0.7C-77.5,-11,-67.4,-22,-61,-36.3C-54.7,-50.6,-52,-68.1,-42.5,-72.1C-32.9,-76.1,-16.5,-66.7,-0.3,-66.1C15.8,-65.6,31.7,-73.9,43.7,-71.3Z" transform="translate(100 100)" />
</svg>
