<?xml version="1.0" standalone="no"?>
<svg viewBox="0 0 200 200" xmlns="http://www.w3.org/2000/svg">
  <path fill="#08BDBA" d="M41.5,-74.3C53.7,-64.8,63.3,-53.5,69.9,-40.8C76.5,-28.1,80,-14.1,80.9,0.5C81.8,15.1,80.2,30.3,73.9,43.4C67.6,56.5,56.5,67.6,43.4,72.7C30.3,77.7,15.2,76.6,1,74.8C-13.1,73,-26.3,70.6,-37.4,64.5C-48.6,58.4,-57.8,48.5,-65,37.1C-72.2,25.8,-77.5,12.9,-79.5,-1.2C-81.5,-15.2,-80.3,-30.4,-73.4,-42.4C-66.5,-54.3,-53.9,-63,-40.8,-71.9C-27.6,-80.8,-13.8,-89.8,0.4,-90.6C14.7,-91.3,29.3,-83.7,41.5,-74.3Z" transform="translate(100 100)" />
</svg>
